<svg width="1280" height="720" viewBox="0 0 1280 720" fill="none" xmlns="http://www.w3.org/2000/svg">
  <rect width="1280" height="720" rx="32" fill="#FCFCFC"/>
  <rect x="40" y="40" width="1200" height="640" rx="24" fill="white" stroke="#E7E7E7"/>
  <rect x="88" y="92" width="220" height="536" rx="18" fill="#FAFAFA" stroke="#E7E7E7"/>
  <rect x="352" y="92" width="576" height="536" rx="18" fill="white" stroke="#E7E7E7"/>
  <rect x="960" y="92" width="232" height="536" rx="18" fill="#FAFAFA" stroke="#E7E7E7"/>
  <rect x="104" y="122" width="96" height="14" rx="7" fill="#111111"/>
  <rect x="104" y="168" width="148" height="12" rx="6" fill="#D8D8D8"/>
  <rect x="104" y="196" width="122" height="12" rx="6" fill="#D8D8D8"/>
  <rect x="104" y="260" width="128" height="12" rx="6" fill="#111111"/>
  <rect x="104" y="288" width="138" height="12" rx="6" fill="#D8D8D8"/>
  <rect x="104" y="316" width="116" height="12" rx="6" fill="#D8D8D8"/>
  <rect x="392" y="130" width="112" height="12" rx="6" fill="#5F6368"/>
  <rect x="392" y="168" width="380" height="40" rx="20" fill="#111111"/>
  <rect x="392" y="236" width="420" height="18" rx="9" fill="#D8D8D8"/>
  <rect x="392" y="266" width="358" height="18" rx="9" fill="#D8D8D8"/>
  <rect x="392" y="328" width="160" height="96" rx="16" fill="#FCFCFC" stroke="#E7E7E7"/>
  <rect x="580" y="328" width="160" height="96" rx="16" fill="#FCFCFC" stroke="#E7E7E7"/>
  <rect x="768" y="328" width="120" height="96" rx="16" fill="#FCFCFC" stroke="#E7E7E7"/>
  <rect x="392" y="460" width="496" height="116" rx="18" fill="#FAFAFA" stroke="#E7E7E7"/>
  <rect x="990" y="122" width="128" height="12" rx="6" fill="#111111"/>
  <rect x="990" y="164" width="154" height="12" rx="6" fill="#D8D8D8"/>
  <rect x="990" y="192" width="142" height="12" rx="6" fill="#D8D8D8"/>
  <rect x="990" y="220" width="118" height="12" rx="6" fill="#D8D8D8"/>
</svg>
